<svg width="34" height="37" viewBox="0 0 34 37" fill="none" xmlns="http://www.w3.org/2000/svg">
<g filter="url(#filter0_d_320_701)">
<path d="M4.67291 4.98157C5.92612 5.19431 8.89858 6.08602 10.7627 7.95017L21.9211 19.1085L18.7999 22.2297L7.64083 11.0707C5.77713 9.20677 4.88579 6.23498 4.67291 4.98157Z" fill="#DFFF29"/>
<path d="M20.947 22.2349C21.2174 21.9648 21.6558 21.9648 21.9262 22.2349L21.4366 21.7453L22.0284 21.1536C22.2988 20.8834 22.7372 20.8834 23.0076 21.1536L27.014 25.16L25.9064 26.2152L25.9327 26.2414L24.8251 27.2965L20.3552 22.8267L20.947 22.2349Z" fill="#DFFF29"/>
<path d="M26.1267 16.4724L22.4296 22.4303L16.4731 26.1274L14.5037 24.158C15.2866 24.1286 17.5745 23.348 20.4616 20.4609C23.3481 17.5744 24.1283 15.287 24.158 14.5037L26.1267 16.4724Z" fill="#DFFF29"/>
<path d="M25.7789 24.9572L28.4161 25.3336L27.914 28.2221L25.0255 28.7241L24.6492 26.0869L25.7789 24.9572Z" fill="#DFFF29"/>
</g>
<defs>
<filter id="filter0_d_320_701" x="1.67285" y="4.98163" width="31.7432" height="31.7424" filterUnits="userSpaceOnUse" color-interpolation-filters="sRGB">
<feFlood flood-opacity="0" result="BackgroundImageFix"/>
<feColorMatrix in="SourceAlpha" type="matrix" values="0 0 0 0 0 0 0 0 0 0 0 0 0 0 0 0 0 0 127 0" result="hardAlpha"/>
<feOffset dx="1" dy="4"/>
<feGaussianBlur stdDeviation="2"/>
<feComposite in2="hardAlpha" operator="out"/>
<feColorMatrix type="matrix" values="0 0 0 0 0 0 0 0 0 0 0 0 0 0 0 0 0 0 1 0"/>
<feBlend mode="normal" in2="BackgroundImageFix" result="effect1_dropShadow_320_701"/>
<feBlend mode="normal" in="SourceGraphic" in2="effect1_dropShadow_320_701" result="shape"/>
</filter>
</defs>
</svg>
