<svg width="100" height="100" viewBox="0 0 100 100" fill="none" xmlns="http://www.w3.org/2000/svg">
<g clip-path="url(#clip0_198_140)">
<path d="M37.5687 9.39513C45.2794 3.79296 55.7206 3.79295 63.4313 9.39512L87.4992 26.8815C95.2099 32.4836 98.4364 42.4137 95.4912 51.4782L86.298 79.7718C83.3528 88.8363 74.9058 94.9734 65.3748 94.9734H35.6252C26.0942 94.9734 17.6472 88.8363 14.702 79.7718L5.50885 51.4782C2.56361 42.4137 5.79009 32.4837 13.5008 26.8815L37.5687 9.39513Z" fill="black"/>
<path d="M53.9443 81.9998C47.4928 77.2852 41.0413 73.3977 34.5898 70.172L43.5226 62.3971C47.6582 64.3822 51.7111 67.1117 55.8467 70.5855V49.4941H49.3952L42.1165 59.0059C39.8006 57.0208 37.7328 55.6147 35.4169 54.6222C36.1613 48.6669 36.0786 40.1476 35.7477 32.9517C40.7105 29.6432 45.5077 25.8385 50.4704 21.3721C54.6887 23.688 59.8169 25.0114 64.8623 25.1768L56.4257 34.6059C53.0345 34.1097 49.0643 32.869 45.6732 31.3802V47.4263H48.8989L55.6813 38.9897C59.1552 40.8093 62.2982 42.2154 65.7721 43.208C65.524 53.1334 65.6067 62.8106 66.1029 71.5781C61.4711 75.052 57.5836 78.5259 53.9443 81.9998Z" fill="#DFFF29"/>
</g>
<defs>
<clipPath id="clip0_198_140">
<rect width="100" height="100" fill="white"/>
</clipPath>
</defs>
</svg>
