<svg width="282" height="35" viewBox="0 0 282 35" fill="none" xmlns="http://www.w3.org/2000/svg">
<g opacity="0.8">
<path d="M92.4084 9.88263C92.7532 9.88263 93.0325 10.1629 93.0325 10.5076C93.0322 10.8522 92.7531 11.1317 92.4084 11.1317H85.0735V15.8133H90.2239C90.5684 15.8134 90.8477 16.0928 90.8479 16.4373C90.8479 16.782 90.5686 17.0622 90.2239 17.0623H85.0735V21.744H92.4084C92.7532 21.744 93.0324 22.0233 93.0325 22.368C93.0325 22.7128 92.7532 22.992 92.4084 22.992H84.4495C84.1047 22.992 83.8254 22.7128 83.8254 22.368V10.5076C83.8254 10.1629 84.1047 9.88263 84.4495 9.88263H92.4084ZM31.4602 9.88751L31.387 10.5076C31.4545 9.93325 31.4605 9.89059 31.4612 9.88751H31.4631C31.4644 9.88766 31.4664 9.88829 31.468 9.88849C31.471 9.88887 31.4746 9.8889 31.4788 9.88947C31.4876 9.89067 31.4992 9.89221 31.5129 9.89435C31.5405 9.89864 31.5779 9.90483 31.6233 9.91388C31.7139 9.93197 31.8385 9.96124 31.9856 10.0067C32.2784 10.0971 32.672 10.256 33.0686 10.5301C33.8885 11.0968 34.6642 12.1217 34.6643 13.8621C34.6643 15.6028 33.8886 16.6284 33.0686 17.1951C32.672 17.4693 32.2784 17.6282 31.9856 17.7186C31.9562 17.7276 31.9272 17.7342 31.8997 17.742L34.7053 21.6951C34.9046 21.9762 34.8388 22.3657 34.5579 22.5652C34.2767 22.7648 33.8873 22.698 33.6877 22.4168L30.4417 17.8426H26.8616C26.5168 17.8426 26.2366 17.5624 26.2366 17.2176C26.2368 16.873 26.5169 16.5936 26.8616 16.5936H31.3391C31.3497 16.5917 31.3633 16.5899 31.3792 16.5867C31.4335 16.5759 31.5162 16.5565 31.6174 16.5252C31.822 16.462 32.0921 16.352 32.3586 16.1678C32.8652 15.8176 33.4163 15.1645 33.4163 13.8621C33.4161 12.56 32.8651 11.9075 32.3586 11.5574C32.0921 11.3732 31.8221 11.2632 31.6174 11.2C31.5162 11.1687 31.4335 11.1493 31.3792 11.1385C31.3633 11.1353 31.3497 11.1335 31.3391 11.1317H23.1155C22.771 11.1315 22.4917 10.8521 22.4915 10.5076C22.4915 10.1629 22.7708 9.88276 23.1155 9.88263H31.4241L31.4602 9.88751ZM47.4622 9.88263C47.8068 9.88279 48.0862 10.163 48.0862 10.5076V22.0565C48.0859 22.4009 47.8066 22.6803 47.4622 22.6805C47.1175 22.6805 46.8374 22.401 46.8372 22.0565V10.5076C46.8372 10.1629 47.1174 9.88263 47.4622 9.88263ZM70.2981 10.2596C70.4349 9.94314 70.8029 9.79754 71.1194 9.93439C71.4357 10.0712 71.5812 10.4383 71.4446 10.7547L66.4504 22.3035C66.3512 22.5331 66.1244 22.6817 65.8743 22.6805C65.624 22.679 65.3987 22.5275 65.302 22.2967L60.4641 10.7479C60.3312 10.43 60.4804 10.0647 60.7981 9.93146C61.1161 9.79831 61.4823 9.94845 61.6155 10.2664L65.886 20.4617L70.2981 10.2596Z" fill="white"/>
<mask id="mask0_157_62655" style="mask-type:luminance" maskUnits="userSpaceOnUse" x="177" y="9" width="95" height="17">
<path d="M271.231 9.17871H177.721V25.8769H271.231V9.17871Z" fill="white"/>
</mask>
<g mask="url(#mask0_157_62655)">
<path d="M270.833 21.7669C270.492 22.0352 270.126 22.1812 269.736 22.1812C268.93 22.1812 268.661 21.6454 268.661 20.9622V14.8893C268.661 12.8156 267.253 11.3435 264.521 11.3435C260.493 11.3435 259.355 14.3275 259.064 15.227L259.276 15.4395C259.276 15.4395 259.914 14.8329 260.185 14.6399C260.511 14.4085 260.839 14.1779 261.201 14.0065C261.914 13.6681 262.728 13.5286 263.505 13.7057C264.232 13.8712 264.625 14.4599 264.676 15.1836C264.676 16.0411 264.181 16.4944 263.084 16.9384C260.51 17.9796 257.752 19.4488 257.752 21.8233C257.752 23.6432 259.194 24.4603 260.886 24.4603C262.782 24.4603 264.236 23.4118 264.837 22.2889C265.085 23.5478 266.154 24.4256 267.54 24.4256C269.736 24.4256 270.613 22.8153 271.004 21.9376L270.833 21.7669ZM264.685 21.4191C264.415 21.6064 263.932 21.7633 263.522 21.7633C262.301 21.7633 261.663 21.2124 261.663 20.1834C261.663 18.1625 264.404 17.6412 264.685 16.7338V21.4191Z" fill="white"/>
<path d="M254.084 14.1221V11.2618L248.862 12.7006V12.7491C249.863 13.8712 250.253 14.9688 250.253 16.9196V19.4315C250.253 21.6996 250.009 22.7242 249.57 23.9924V24.0408H254.839V23.9924C254.4 22.6996 254.205 21.5782 254.205 19.4561V15.2364C254.447 13.7997 256.045 13.5148 257.603 15.2262H257.787L258.934 11.5611C256.274 10.8735 254.439 12.4309 254.083 14.1214H254.084V14.1221Z" fill="white"/>
<path d="M217.585 11.4014C213.997 11.4014 210.751 14.1829 210.751 17.916C210.751 21.6491 213.997 24.4306 217.585 24.4306C221.172 24.4306 224.443 21.6975 224.443 17.916C224.443 14.1345 221.197 11.4014 217.585 11.4014ZM217.61 23.2253C215.804 23.2253 214.925 21.0844 214.925 17.9167C214.925 14.7491 215.755 12.6305 217.585 12.6305C219.416 12.6305 220.27 14.7939 220.27 17.9167C220.27 21.0395 219.441 23.2253 217.61 23.2253Z" fill="white"/>
<path d="M246.643 22.5326C245.643 22.5326 244.886 22.0691 244.886 20.678V13.0542H247.313L247.721 11.7969H244.885V9.17871H244.616L239.516 12.7708V13.0542H240.931V20.947C240.931 23.4603 242.371 24.4364 244.397 24.4364C246.423 24.4364 247.827 23.3533 248.389 22.2796L248.196 22.0865C248.139 22.1422 247.619 22.5334 246.641 22.5334L246.643 22.5326Z" fill="white"/>
<path d="M238.35 14.9147C238.35 12.7433 236.836 11.4014 234.591 11.4014C232.346 11.4014 230.833 12.7188 230.173 13.7925V11.2792L224.95 12.7188V12.7672C225.926 13.8894 226.342 14.9877 226.342 16.9399V19.4532C226.342 21.7221 226.098 22.7474 225.658 24.0156V24.064H230.93V24.0156C230.49 22.7221 230.295 21.5999 230.295 19.477V15.1851C230.6 14.3976 231.386 13.5119 232.639 13.5119C233.891 13.5119 234.396 14.4664 234.396 15.5147V19.5009C234.396 21.6476 234.201 22.7214 233.737 24.0149V24.0633H239.01V24.0149C238.546 22.7214 238.35 21.6722 238.35 19.4525V14.9139L238.35 14.9147Z" fill="white"/>
<path d="M204.765 12.3891C206.489 12.3891 207.707 14.7346 208.576 16.5502L208.79 16.5625L209.907 13.0376C209.907 13.0376 208.022 11.2423 205.324 11.2423C201.164 11.2423 198.242 14.0889 198.242 18.1481C198.242 21.9846 200.669 24.4603 204.209 24.4603C207.057 24.4603 208.914 22.926 209.606 20.6238L209.374 20.485C208.755 21.1531 207.625 21.5645 206.363 21.5645C204.159 21.5645 202.302 20.1285 202.302 16.4902C202.302 13.9422 203.447 12.3898 204.764 12.3898L204.765 12.3891Z" fill="white"/>
<path fill-rule="evenodd" clip-rule="evenodd" d="M183.657 12.0461C182.852 13.2737 181.798 14.3238 180.565 15.1251C179.694 15.7207 178.739 16.205 177.721 16.5554V16.8365H185.375V9.17871H185.106C184.753 10.2048 184.263 11.1683 183.657 12.0461ZM186.765 9.17871V16.8693H194.42V16.5883C193.402 16.2379 192.448 15.7535 191.576 15.158C190.344 14.3567 189.289 13.3066 188.484 12.079C187.872 11.192 187.377 10.2174 187.024 9.17871H186.765ZM194.42 18.1864H186.765V25.8769H187.024C187.377 24.8385 187.872 23.8637 188.484 22.9767C189.289 21.749 190.344 20.699 191.576 19.8977C192.448 19.3018 193.402 18.8178 194.42 18.4673V18.1864ZM185.375 25.8769V18.2192H177.722V18.5002C178.739 18.8506 179.694 19.335 180.565 19.9305C181.798 20.7319 182.852 21.7822 183.658 23.0095C184.263 23.8873 184.753 24.8505 185.106 25.8766L185.375 25.8769Z" fill="white"/>
</g>
<path opacity="0.2" d="M144.892 23.2175C144.94 23.2175 144.964 23.29 144.964 23.4352C144.964 23.5803 144.94 23.6529 144.892 23.6529L143.694 23.6166C143.404 23.5924 142.993 23.5803 142.46 23.5803L140.029 23.6166C139.69 23.6408 139.207 23.6529 138.578 23.6529C138.505 23.6529 138.469 23.5803 138.469 23.4352C138.469 23.29 138.505 23.2175 138.578 23.2175C139.303 23.2175 139.666 23.0602 139.666 22.7457C139.666 22.5522 139.521 22.2377 139.231 21.8022L136.582 17.8104L134.695 20.5321C134.187 21.3063 133.933 21.8869 133.933 22.2739C133.933 22.903 134.574 23.2175 135.856 23.2175C135.929 23.2175 135.965 23.29 135.965 23.4352C135.965 23.5803 135.929 23.6529 135.856 23.6529C135.203 23.6529 134.719 23.6408 134.404 23.6166L132.227 23.5803L130.884 23.6166C130.618 23.6408 130.207 23.6529 129.651 23.6529C129.602 23.6529 129.578 23.5803 129.578 23.4352C129.578 23.29 129.602 23.2175 129.651 23.2175C130.328 23.2175 131.054 22.9634 131.828 22.4554C132.602 21.9474 133.316 21.2337 133.969 20.3144L136.183 17.2298L133.134 12.6575C132.578 11.7865 131.997 11.1454 131.392 10.7342C130.812 10.2987 130.292 10.081 129.832 10.081C129.784 10.081 129.759 10.0084 129.759 9.86324C129.759 9.71809 129.784 9.64551 129.832 9.64551C130.34 9.64551 130.715 9.6576 130.957 9.6818L132.082 9.71808L134.513 9.6818C134.852 9.6576 135.336 9.64551 135.965 9.64551C136.013 9.64551 136.037 9.71809 136.037 9.86324C136.037 10.0084 136.013 10.081 135.965 10.081C135.602 10.081 135.336 10.1173 135.166 10.1898C134.997 10.2624 134.912 10.3834 134.912 10.5527C134.912 10.7463 135.058 11.0608 135.348 11.4962L137.743 15.0888L139.303 12.7663C139.836 11.968 140.102 11.3753 140.102 10.9882C140.102 10.6737 139.944 10.4439 139.63 10.2987C139.315 10.1535 138.82 10.081 138.142 10.081C138.094 10.081 138.07 10.0084 138.07 9.86324C138.07 9.71809 138.094 9.64551 138.142 9.64551C138.795 9.64551 139.291 9.6576 139.63 9.6818L141.807 9.71808L143.15 9.6818C143.416 9.6576 143.827 9.64551 144.384 9.64551C144.432 9.64551 144.456 9.71809 144.456 9.86324C144.456 10.0084 144.432 10.081 144.384 10.081C143.706 10.081 142.993 10.335 142.243 10.843C141.493 11.3269 140.767 12.0406 140.065 12.9841L138.106 15.6694L141.408 20.641C141.989 21.5361 142.581 22.1893 143.186 22.6005C143.815 23.0118 144.384 23.2175 144.892 23.2175Z" fill="white"/>
</g>
</svg>
