<svg width="378" height="225" viewBox="0 0 378 225" fill="none" xmlns="http://www.w3.org/2000/svg">
<path d="M40.6106 161C30.354 153.505 20.0975 147.325 9.84092 142.196L24.0423 129.836C30.617 132.992 37.0602 137.331 43.6349 142.854V109.323H33.3784L21.8069 124.445C18.1251 121.289 14.8377 119.053 11.1559 117.475C12.3393 108.008 12.2078 94.464 11.6818 83.024C19.5715 77.7642 27.1981 71.7155 35.0878 64.6148C41.794 68.2966 49.9466 70.4005 57.9678 70.6635L44.5554 85.6538C39.1641 84.8649 32.8524 82.8925 27.4611 80.5256V106.035H32.5894L43.3719 92.623C48.8947 95.5159 53.8915 97.7513 59.4142 99.3292C59.0197 115.109 59.1512 130.493 59.9402 144.432C52.5765 149.954 46.3963 155.477 40.6106 161ZM67.6727 83.6814C67.6727 80.3941 66.7522 77.3697 65.7003 74.2139L82.5315 66.4557V101.959L90.9471 91.3081C96.8644 95.1214 102.913 97.3568 108.83 99.8552L95.1549 114.977L107.91 121.42V144.826C107.91 147.193 108.83 152.19 110.145 154.425L93.051 161V127.075H82.5315V161H67.6727V83.6814ZM82.5315 124.839L91.4731 115.635L93.9715 112.347L85.2929 103.932L82.5315 106.693V124.839ZM135.258 161L116.585 153.373V108.534C116.585 105.246 115.665 102.222 114.613 99.0663L131.444 91.3081V144.695L141.832 146.01V108.534C141.832 105.246 140.912 102.222 139.86 99.0663L156.691 91.3081L156.56 146.799C156.56 149.297 159.19 151.927 160.241 153.636L144.462 161L142.095 148.245L135.258 161ZM165.651 83.6814C165.651 80.3941 164.731 77.3697 163.679 74.2139L180.51 66.4557V161H165.651V83.6814ZM188.765 83.6814C188.765 80.3941 187.845 77.3697 186.793 74.2139L203.624 66.4557V161H188.765V83.6814ZM240.301 161C230.176 156.135 220.182 151.795 210.057 148.245C211.109 126.68 211.241 104.983 210.189 83.4184C218.341 78.1587 226.362 71.9785 233.989 64.6148C242.01 69.2171 250.82 72.1099 260.156 73.5564L252.398 89.2042C243.851 87.3633 235.304 84.3389 226.757 80.1311V109.586L241.353 94.201C247.533 97.2253 253.45 99.1977 259.631 100.381C258.579 114.977 258.579 129.573 259.631 144.169C253.056 149.034 246.876 154.557 240.301 161ZM226.757 138.12L242.931 143.248V111.953H226.757V138.12ZM286.014 161L267.341 153.373V108.534C267.341 105.246 266.421 102.222 265.369 99.0663L282.2 91.3081V144.695L292.588 146.01V108.534C292.588 105.246 291.668 102.222 290.616 99.0663L307.447 91.3081L307.316 146.799C307.316 149.297 309.946 151.927 310.997 153.636L295.218 161L292.851 148.245L286.014 161ZM336.773 182.96L317.444 175.99L329.41 163.235L342.296 171.125V148.245L335.458 161L316.786 153.373V108.534C316.786 105.246 315.866 102.222 314.814 99.0663L331.645 91.3081V144.695L342.033 146.01V108.534C342.033 105.246 341.113 102.222 340.061 99.0663L356.892 91.3081C356.629 116.818 356.761 142.459 357.286 167.969L336.773 182.96Z" fill="white"/>
</svg>
